<svg preserveAspectRatio="none" width="100%" height="100%" overflow="visible" style="display: block;" viewBox="0 0 32 32" fill="none" xmlns="http://www.w3.org/2000/svg">
<g id="Frame 2147260810">
<rect x="0.25" y="0.25" width="31.5" height="31.5" rx="15.75" fill="var(--fill-0, white)"/>
<rect x="0.25" y="0.25" width="31.5" height="31.5" rx="15.75" stroke="var(--stroke-0, #EEEEEE)" stroke-width="0.5"/>
<circle id="Ellipse 1801" cx="16" cy="16" r="14" fill="var(--fill-0, #3626A7)"/>
<g id="sailing">
<mask id="mask0_0_39" style="mask-type:alpha" maskUnits="userSpaceOnUse" x="6" y="6" width="20" height="20">
<rect id="Bounding box" x="6" y="6" width="20" height="20" fill="var(--fill-0, #D9D9D9)"/>
</mask>
<g mask="url(#mask0_0_39)">
<path id="sailing_2" d="M9.8125 16.3333L14.4792 9.5C14.5625 9.38889 14.6597 9.31597 14.7708 9.28125C14.8819 9.24653 14.9931 9.24306 15.1042 9.27083C15.2153 9.29861 15.309 9.35764 15.3854 9.44792C15.4618 9.5382 15.5 9.65972 15.5 9.8125V16.75C15.5 16.9583 15.4271 17.1354 15.2812 17.2813C15.1354 17.4271 14.9583 17.5 14.75 17.5H10.4167C10.2639 17.5 10.1354 17.4618 10.0312 17.3854C9.92708 17.309 9.84028 17.2153 9.77083 17.1042C9.70139 16.9931 9.67014 16.8681 9.67708 16.7292C9.68403 16.5903 9.72917 16.4583 9.8125 16.3333ZM17.5 17.5C17.0278 17.5 16.7917 17.3229 16.7917 16.9688C16.7917 16.6146 16.8333 16.2986 16.9167 16.0208C17.0417 15.4375 17.1354 14.8542 17.1979 14.2708C17.2604 13.6875 17.2917 13.0972 17.2917 12.5C17.2917 11.8472 17.2535 11.1944 17.1771 10.5417C17.1007 9.88889 17 9.24306 16.875 8.60417C16.8472 8.45139 16.8576 8.30556 16.9062 8.16667C16.9549 8.02778 17.0347 7.91667 17.1458 7.83333C17.2569 7.75 17.3854 7.69792 17.5312 7.67708C17.6771 7.65625 17.8194 7.68056 17.9583 7.75C18.7222 8.15278 19.3889 8.71181 19.9583 9.42708C20.5278 10.1424 21.0139 10.875 21.4167 11.625C21.8333 12.4167 22.1736 13.2396 22.4375 14.0938C22.7014 14.9479 22.8681 15.8194 22.9375 16.7083C22.9514 16.9306 22.8889 17.1181 22.75 17.2708C22.6111 17.4236 22.4306 17.5 22.2083 17.5H17.5ZM13.5 22C13.125 22 12.7778 21.9062 12.4583 21.7188C12.1389 21.5312 11.8403 21.3056 11.5625 21.0417C11.4931 20.9722 11.4097 20.9201 11.3125 20.8854C11.2153 20.8507 11.1181 20.8333 11.0208 20.8333C10.9236 20.8333 10.8299 20.8542 10.7396 20.8958C10.6493 20.9375 10.5694 21 10.5 21.0833C10.4028 21.1667 10.309 21.2465 10.2188 21.3229C10.1285 21.3993 10.0278 21.4722 9.91667 21.5417C9.58333 21.3056 9.27431 21.0174 8.98958 20.6771C8.70486 20.3368 8.48611 19.9653 8.33333 19.5625C8.22222 19.3125 8.23264 19.0729 8.36458 18.8438C8.49653 18.6146 8.71528 18.5 9.02083 18.5H22.9792C23.2292 18.5 23.4271 18.6042 23.5729 18.8125C23.7188 19.0208 23.7569 19.2431 23.6875 19.4792C23.5764 19.8542 23.3611 20.2326 23.0417 20.6146C22.7222 20.9965 22.4028 21.3056 22.0833 21.5417C21.9722 21.4722 21.8681 21.3993 21.7708 21.3229C21.6736 21.2465 21.5833 21.1667 21.5 21.0833C21.4306 21 21.3507 20.9375 21.2604 20.8958C21.1701 20.8542 21.0764 20.8333 20.9792 20.8333C20.8819 20.8333 20.7882 20.8472 20.6979 20.875C20.6076 20.9028 20.5278 20.9514 20.4583 21.0208C20.1806 21.2847 19.8785 21.5139 19.5521 21.7083C19.2257 21.9028 18.875 22 18.5 22C18.1111 22 17.7535 21.9028 17.4271 21.7083C17.1007 21.5139 16.7986 21.2778 16.5208 21C16.4514 20.9306 16.3715 20.8785 16.2812 20.8438C16.191 20.809 16.0972 20.7917 16 20.7917C15.9028 20.7917 15.809 20.809 15.7188 20.8438C15.6285 20.8785 15.5486 20.9306 15.4792 21C15.2014 21.2639 14.8993 21.4965 14.5729 21.6979C14.2465 21.8993 13.8889 22 13.5 22ZM16 24.3958C15.6111 24.5903 15.2083 24.7396 14.7917 24.8438C14.375 24.9479 13.9444 25 13.5 25C13.0556 25 12.625 24.9514 12.2083 24.8542C11.7917 24.7569 11.3889 24.6042 11 24.3958C10.6111 24.6042 10.2083 24.7569 9.79167 24.8542C9.375 24.9514 8.94444 25 8.5 25C8.29167 25 8.15625 24.8924 8.09375 24.6771C8.03125 24.4618 8 24.2361 8 24C8 23.8611 8.04861 23.7431 8.14583 23.6458C8.24306 23.5486 8.36111 23.5 8.5 23.5C8.875 23.5 9.23958 23.4271 9.59375 23.2812C9.94792 23.1354 10.2847 22.9583 10.6042 22.75C10.6736 22.7083 10.7396 22.6806 10.8021 22.6667C10.8646 22.6528 10.9306 22.6458 11 22.6458C11.0694 22.6458 11.1354 22.6528 11.1979 22.6667C11.2604 22.6806 11.3264 22.7083 11.3958 22.75C11.7153 22.9444 12.0521 23.1181 12.4062 23.2708C12.7604 23.4236 13.125 23.5 13.5 23.5C13.875 23.5 14.2396 23.4236 14.5938 23.2708C14.9479 23.1181 15.2847 22.9444 15.6042 22.75C15.6736 22.7083 15.7396 22.6806 15.8021 22.6667C15.8646 22.6528 15.9306 22.6458 16 22.6458C16.0694 22.6458 16.1354 22.6528 16.1979 22.6667C16.2604 22.6806 16.3264 22.7083 16.3958 22.75C16.7153 22.9583 17.0521 23.1354 17.4062 23.2812C17.7604 23.4271 18.125 23.5 18.5 23.5C18.875 23.5 19.2396 23.4236 19.5938 23.2708C19.9479 23.1181 20.2847 22.9444 20.6042 22.75C20.6736 22.7083 20.8056 22.6736 21 22.6458C21.0417 22.6458 21.1736 22.6806 21.3958 22.75C21.7153 22.9583 22.0521 23.1354 22.4062 23.2812C22.7604 23.4271 23.125 23.5 23.5 23.5C23.7083 23.5 23.8438 23.6076 23.9062 23.8229C23.9688 24.0382 24 24.2639 24 24.5C24 24.6389 23.9514 24.7569 23.8542 24.8542C23.7569 24.9514 23.6389 25 23.5 25C23.0556 25 22.625 24.9514 22.2083 24.8542C21.7917 24.7569 21.3889 24.6042 21 24.3958C20.6111 24.6042 20.2083 24.7569 19.7917 24.8542C19.375 24.9514 18.9444 25 18.5 25C18.0556 25 17.625 24.9479 17.2083 24.8438C16.7917 24.7396 16.3889 24.5903 16 24.3958Z" fill="var(--fill-0, white)"/>
</g>
</g>
</g>
</svg>
