<svg preserveAspectRatio="none" width="100%" height="100%" overflow="visible" style="display: block;" viewBox="0 0 32 32" fill="none" xmlns="http://www.w3.org/2000/svg">
<g id="Frame 2147260810">
<rect x="0.25" y="0.25" width="31.5" height="31.5" rx="15.75" fill="var(--fill-0, white)"/>
<rect x="0.25" y="0.25" width="31.5" height="31.5" rx="15.75" stroke="var(--stroke-0, #EEEEEE)" stroke-width="0.5"/>
<circle id="Ellipse 1801" cx="16" cy="16" r="14" fill="var(--fill-0, #3626A7)"/>
<g id="cottage">
<mask id="mask0_0_44" style="mask-type:alpha" maskUnits="userSpaceOnUse" x="6" y="6" width="20" height="20">
<rect id="Bounding box" x="6" y="6" width="20" height="20" fill="var(--fill-0, #D9D9D9)"/>
</mask>
<g mask="url(#mask0_0_44)">
<path id="cottage_2" d="M10.4167 21.2458V15.6585L9.46708 16.4021C9.34583 16.4919 9.21042 16.5256 9.06083 16.5031C8.91139 16.4808 8.79014 16.4103 8.69708 16.2917C8.60417 16.1731 8.5668 16.04 8.585 15.8925C8.60305 15.7449 8.67569 15.6226 8.80292 15.5256L10.4167 14.2917V12.4423C10.4167 12.2885 10.4681 12.1599 10.571 12.0563C10.6738 11.9525 10.8015 11.9006 10.954 11.9006C11.1065 11.9006 11.2356 11.9525 11.3412 12.0563C11.4471 12.1599 11.5 12.2885 11.5 12.4423V13.4583L15.1875 10.6362C15.3104 10.5358 15.4424 10.4674 15.5833 10.431C15.7243 10.3948 15.8632 10.3767 16 10.3767C16.1368 10.3767 16.2757 10.3948 16.4167 10.431C16.5576 10.4674 16.6896 10.5358 16.8125 10.6362L23.2038 15.526C23.3232 15.6187 23.3928 15.7398 23.4127 15.8894C23.4324 16.039 23.3958 16.1761 23.3029 16.3008C23.2099 16.4186 23.089 16.4888 22.9404 16.5113C22.7918 16.5336 22.6546 16.4983 22.5287 16.4054L21.5833 15.6585V21.2458C21.5833 21.615 21.4525 21.9302 21.1908 22.1915C20.929 22.4527 20.6133 22.5833 20.2435 22.5833H17.2452C17.1448 22.5833 17.0639 22.5526 17.0025 22.4913C16.941 22.4297 16.9102 22.3487 16.9102 22.2483V19.0898C16.9102 18.8345 16.8228 18.619 16.6479 18.4431C16.4729 18.2673 16.2584 18.1794 16.0044 18.1794C15.7503 18.1794 15.5344 18.2673 15.3565 18.4431C15.1787 18.619 15.0898 18.8345 15.0898 19.0898V22.2483C15.0898 22.3487 15.059 22.4297 14.9975 22.4913C14.9361 22.5526 14.8552 22.5833 14.7548 22.5833H11.7565C11.3867 22.5833 11.071 22.4527 10.8092 22.1915C10.5475 21.9302 10.4167 21.615 10.4167 21.2458ZM11.0208 10.8623C10.8242 10.8623 10.669 10.7878 10.5552 10.6387C10.4415 10.4897 10.4274 10.3372 10.5129 10.181C10.6379 9.80604 10.8685 9.50347 11.2046 9.27333C11.5408 9.04306 11.9144 8.92792 12.3254 8.92792C12.5156 8.92792 12.683 8.87986 12.8277 8.78375C12.9724 8.6875 13.0742 8.55854 13.1331 8.39687C13.1812 8.30646 13.2522 8.22708 13.3462 8.15875C13.4403 8.09028 13.541 8.05604 13.6485 8.05604C13.8497 8.05604 14.0063 8.13889 14.1185 8.30458C14.2308 8.47014 14.2372 8.63354 14.1377 8.79479C13.9935 9.15063 13.7542 9.44229 13.4198 9.66979C13.0855 9.89743 12.7207 10.0112 12.3254 10.0112C12.1351 10.0112 11.9676 10.0567 11.8229 10.1475C11.6782 10.2383 11.5765 10.3647 11.5177 10.5265C11.4642 10.6167 11.3926 10.6953 11.3029 10.7621C11.2132 10.8289 11.1192 10.8623 11.0208 10.8623Z" fill="var(--fill-0, white)"/>
</g>
</g>
</g>
</svg>
