<svg preserveAspectRatio="none" width="100%" height="100%" overflow="visible" style="display: block;" viewBox="0 0 32 32" fill="none" xmlns="http://www.w3.org/2000/svg">
<g id="Frame 2147260810">
<rect x="0.25" y="0.25" width="31.5" height="31.5" rx="15.75" fill="var(--fill-0, white)"/>
<rect x="0.25" y="0.25" width="31.5" height="31.5" rx="15.75" stroke="var(--stroke-0, #EEEEEE)" stroke-width="0.5"/>
<circle id="Ellipse 1801" cx="16" cy="16" r="14" fill="var(--fill-0, #3626A7)"/>
<g id="aod_watch">
<mask id="mask0_0_63" style="mask-type:alpha" maskUnits="userSpaceOnUse" x="6" y="6" width="20" height="20">
<rect id="Bounding box" x="6" y="6" width="20" height="20" fill="var(--fill-0, #D9D9D9)"/>
</mask>
<g mask="url(#mask0_0_63)">
<path id="aod_watch_2" d="M14.125 15.5833C13.9444 15.5833 13.7951 15.5243 13.6771 15.4062C13.559 15.2882 13.5 15.1389 13.5 14.9583C13.5 14.7778 13.559 14.6285 13.6771 14.5104C13.7951 14.3924 13.9444 14.3333 14.125 14.3333H17.875C18.0556 14.3333 18.2049 14.3924 18.3229 14.5104C18.441 14.6285 18.5 14.7778 18.5 14.9583C18.5 15.1389 18.441 15.2882 18.3229 15.4062C18.2049 15.5243 18.0556 15.5833 17.875 15.5833H14.125ZM14.9583 18.0833C14.7778 18.0833 14.6285 18.0243 14.5104 17.9062C14.3924 17.7882 14.3333 17.6389 14.3333 17.4583C14.3333 17.2778 14.3924 17.1285 14.5104 17.0104C14.6285 16.8924 14.7778 16.8333 14.9583 16.8333H17.0417C17.2222 16.8333 17.3715 16.8924 17.4896 17.0104C17.6076 17.1285 17.6667 17.2778 17.6667 17.4583C17.6667 17.6389 17.6076 17.7882 17.4896 17.9062C17.3715 18.0243 17.2222 18.0833 17.0417 18.0833H14.9583ZM14.75 24.3333C14.3889 24.3333 14.059 24.2257 13.7604 24.0104C13.4618 23.7951 13.2569 23.5069 13.1458 23.1458L12.6667 21.5417C12.5833 21.2639 12.4549 20.9826 12.2812 20.6979C12.1076 20.4132 11.8819 20.1181 11.6042 19.8125C11.1319 19.2986 10.7743 18.7153 10.5312 18.0625C10.2882 17.4097 10.1667 16.7222 10.1667 16C10.1667 15.2917 10.2882 14.6111 10.5312 13.9583C10.7743 13.3056 11.1319 12.7153 11.6042 12.1875C11.8819 11.8681 12.1076 11.5694 12.2812 11.2917C12.4549 11.0139 12.5833 10.7361 12.6667 10.4583L13.1458 8.85417C13.2569 8.49306 13.4618 8.20486 13.7604 7.98958C14.059 7.77431 14.3889 7.66667 14.75 7.66667H17.25C17.6111 7.66667 17.941 7.77431 18.2396 7.98958C18.5382 8.20486 18.7431 8.49306 18.8542 8.85417L19.3333 10.4583C19.4167 10.7361 19.5451 11.0174 19.7188 11.3021C19.8924 11.5868 20.1181 11.8819 20.3958 12.1875C20.8681 12.7014 21.2257 13.2847 21.4687 13.9375C21.7118 14.5903 21.8333 15.2778 21.8333 16C21.8333 16.7083 21.7118 17.3889 21.4687 18.0417C21.2257 18.6944 20.8681 19.2847 20.3958 19.8125C20.1181 20.1319 19.8924 20.4306 19.7188 20.7083C19.5451 20.9861 19.4167 21.2639 19.3333 21.5417L18.8542 23.1458C18.7431 23.5069 18.5382 23.7951 18.2396 24.0104C17.941 24.2257 17.6111 24.3333 17.25 24.3333H14.75ZM18.9479 18.9479C19.7604 18.1354 20.1667 17.1528 20.1667 16C20.1667 14.8472 19.7604 13.8646 18.9479 13.0521C18.1354 12.2396 17.1528 11.8333 16 11.8333C14.8472 11.8333 13.8646 12.2396 13.0521 13.0521C12.2396 13.8646 11.8333 14.8472 11.8333 16C11.8333 17.1528 12.2396 18.1354 13.0521 18.9479C13.8646 19.7604 14.8472 20.1667 16 20.1667C17.1528 20.1667 18.1354 19.7604 18.9479 18.9479Z" fill="var(--fill-0, white)"/>
</g>
</g>
</g>
</svg>
