<svg preserveAspectRatio="none" width="100%" height="100%" overflow="visible" style="display: block;" viewBox="0 0 32 32" fill="none" xmlns="http://www.w3.org/2000/svg">
<g id="Frame 2147260810">
<rect x="0.25" y="0.25" width="31.5" height="31.5" rx="15.75" fill="var(--fill-0, white)"/>
<rect x="0.25" y="0.25" width="31.5" height="31.5" rx="15.75" stroke="var(--stroke-0, #EEEEEE)" stroke-width="0.5"/>
<circle id="Ellipse 1801" cx="16" cy="16" r="14" fill="var(--fill-0, #3626A7)"/>
<g id="card_travel">
<mask id="mask0_0_34" style="mask-type:alpha" maskUnits="userSpaceOnUse" x="6" y="6" width="20" height="20">
<rect id="Bounding box" x="6" y="6" width="20" height="20" fill="var(--fill-0, #D9D9D9)"/>
</mask>
<g mask="url(#mask0_0_34)">
<path id="card_travel_2" d="M12 11V9.49562C12 9.08187 12.1469 8.72917 12.4406 8.4375C12.7344 8.14583 13.0875 8 13.5 8H18.5C18.9167 8 19.2708 8.14688 19.5625 8.44063C19.8542 8.73438 20 9.0875 20 9.5V11H22.5C22.9125 11 23.2656 11.1458 23.5594 11.4375C23.8531 11.7292 24 12.0833 24 12.5V21.5C24 21.9167 23.8531 22.2708 23.5594 22.5625C23.2656 22.8542 22.9125 23 22.5 23H9.5C9.08333 23 8.72917 22.8542 8.4375 22.5625C8.14583 22.2708 8 21.9167 8 21.5V12.5C8 12.0833 8.14583 11.7292 8.4375 11.4375C8.72917 11.1458 9.08333 11 9.5 11H12ZM13.5 11H18.5V9.5H13.5V11ZM9.5 20H22.5V17.6042H9.5V20Z" fill="var(--fill-0, white)"/>
</g>
</g>
</g>
</svg>
