<svg preserveAspectRatio="none" width="100%" height="100%" overflow="visible" style="display: block;" viewBox="0 0 28.2714 31.6855" fill="none" xmlns="http://www.w3.org/2000/svg">
<g id="Cursors/Hand-(Open)">
<path id="Path" fill-rule="evenodd" clip-rule="evenodd" d="M15.1922 30.668C13.5423 30.668 12.032 30.374 10.7039 29.7948C9.36523 29.2103 8.16093 28.3073 7.12639 27.1138C6.11838 25.9501 5.22709 24.4608 4.4755 22.6898L1.09425 14.4561C0.844897 13.8593 0.816601 13.287 1.01113 12.762C1.22334 12.1968 1.64423 11.796 2.23135 11.6018C2.44357 11.5265 2.68054 11.4828 2.91574 11.4828C3.20576 11.4828 3.48694 11.5476 3.75398 11.6753C4.19609 11.8888 4.56215 12.2686 4.84334 12.8058L7.64985 17.8091C7.83377 18.1241 7.9717 18.2395 8.02122 18.2745C8.09726 18.3253 8.17154 18.3463 8.27057 18.3463C8.38906 18.3463 8.46156 18.3131 8.54291 18.2221C8.57651 18.1836 8.62603 18.0173 8.56413 17.6568L6.61531 5.34205C6.48091 4.5703 6.71788 4.03305 6.94247 3.72155C7.26256 3.2753 7.72059 2.99005 8.26526 2.89555C8.4032 2.87805 8.4987 2.87105 8.59419 2.87105C9.0363 2.87105 9.44835 3.00055 9.81618 3.25255C10.276 3.56755 10.5784 4.04705 10.688 4.6403L12.6121 13.6213L12.7182 3.07055C12.7182 2.4738 12.918 1.9453 13.3 1.5463C13.6926 1.1333 14.2196 0.914551 14.8191 0.914551C15.4239 0.914551 15.958 1.1263 16.3629 1.5288C16.7697 1.92955 16.9837 2.46505 16.9837 3.0758L16.9218 13.6633L18.5965 4.4828C18.6814 3.9123 18.9696 3.42055 19.4241 3.0863C19.7902 2.8168 20.1987 2.6803 20.639 2.6803C20.7557 2.6803 20.8742 2.6908 20.9945 2.71005C21.5675 2.79755 22.0573 3.0828 22.3933 3.5308C22.6338 3.8493 22.892 4.39705 22.7505 5.19155L21.2191 14.4946L23.3783 8.4273C23.5552 7.87605 23.8611 7.44555 24.2802 7.1708C24.6251 6.9433 25.0071 6.8278 25.4156 6.8278C25.5146 6.8278 25.6136 6.8348 25.7144 6.8488C26.298 6.94855 26.7525 7.23555 27.0602 7.6853C27.3573 8.1228 27.4634 8.6443 27.3768 9.2323L25.3625 20.7386C24.7966 23.9726 23.709 26.4488 22.1298 28.099C20.5011 29.8035 18.1668 30.668 15.1922 30.668Z" fill="var(--fill-0, white)"/>
<path id="Path_2" fill-rule="evenodd" clip-rule="evenodd" d="M24.4969 20.5905L26.5076 9.10525C26.5624 8.736 26.5041 8.4245 26.3308 8.1725C26.1592 7.91875 25.9134 7.76475 25.5951 7.7105C25.2909 7.6685 25.015 7.7315 24.7674 7.89425C24.5181 8.05875 24.3306 8.33175 24.2069 8.715L22.0936 14.6632C21.9963 14.924 21.8619 15.1077 21.6886 15.2162C21.5171 15.3265 21.3119 15.3615 21.0785 15.3195C20.8574 15.2792 20.6735 15.1655 20.5285 14.9817C20.3835 14.7962 20.3251 14.588 20.3517 14.3553L21.8867 5.0435C21.9556 4.648 21.8902 4.3155 21.6886 4.0495C21.4888 3.7835 21.2094 3.6225 20.8504 3.56825C20.5179 3.51225 20.2173 3.584 19.9485 3.7835C19.6797 3.98125 19.517 4.26475 19.4621 4.634L17.8033 13.9247C17.7627 14.1575 17.6548 14.3378 17.4815 14.4673C17.3099 14.5985 17.0995 14.6422 16.8502 14.602C16.5743 14.56 16.3709 14.4568 16.2383 14.294C16.1074 14.1295 16.042 13.9177 16.042 13.657L16.1039 3.07475C16.1039 2.69325 15.9836 2.38175 15.7413 2.142C15.4991 1.904 15.1914 1.78325 14.82 1.78325C14.4592 1.78325 14.1657 1.904 13.9393 2.142C13.7112 2.38175 13.5962 2.69325 13.5962 3.07475L13.5343 13.7392C13.5343 13.986 13.4477 14.1908 13.2761 14.3553C13.1028 14.5198 12.8995 14.602 12.6643 14.602C12.4291 14.602 12.2328 14.5285 12.0736 14.385C11.9144 14.2415 11.8066 14.0472 11.7517 13.8005L9.82414 4.7985C9.75518 4.42925 9.58717 4.15275 9.3166 3.96725C9.0478 3.7835 8.74717 3.71175 8.4147 3.752C8.09815 3.80625 7.84526 3.96375 7.65958 4.2245C7.47212 4.4835 7.41376 4.8125 7.48273 5.208L9.43155 17.514C9.52705 18.088 9.451 18.515 9.20342 18.795C8.95407 19.0768 8.64283 19.2167 8.26969 19.2167C7.99381 19.2167 7.74623 19.1415 7.52517 18.991C7.30412 18.8405 7.08837 18.5868 6.88146 18.2315L4.06434 13.2072C3.86981 12.838 3.63815 12.5877 3.36934 12.4582C3.10054 12.3287 2.81229 12.3182 2.50988 12.4267C2.17742 12.537 1.95282 12.7488 1.83611 13.0638C1.71762 13.377 1.74238 13.7323 1.90861 14.1295L5.28633 22.3545C6.00432 24.0485 6.84079 25.4467 7.79398 26.5475C8.74717 27.6482 9.83476 28.4655 11.0585 28.9975C12.2805 29.5312 13.6581 29.7973 15.1914 29.7973C17.9271 29.7973 20.028 29.0325 21.4923 27.5012C22.9566 25.97 23.9593 23.667 24.4969 20.5905ZM3.58686 22.9477L0.29226 14.91C0.0570577 14.3342 -0.0366696 13.7882 0.0128467 13.2685C0.0605945 12.7487 0.226828 12.2972 0.509778 11.914C0.792728 11.5325 1.14818 11.2315 1.57615 11.0128C2.00411 10.8063 2.47098 10.7117 2.97498 10.7257C3.47899 10.738 3.96708 10.8815 4.43571 11.1562C4.90612 11.4293 5.30048 11.8458 5.61703 12.4075L7.2546 15.505C7.29705 15.5855 7.35187 15.6205 7.42084 15.6065C7.48981 15.5925 7.5181 15.5383 7.50395 15.442L5.74259 5.516C5.61703 4.87375 5.64532 4.29975 5.82571 3.794C6.00432 3.28825 6.29434 2.877 6.69578 2.56375C7.09544 2.24875 7.55877 2.051 8.084 1.96875C8.60923 1.8865 9.11323 1.93725 9.59602 2.12275C10.0806 2.3065 10.4944 2.611 10.841 3.0345C11.1858 3.458 11.4281 3.98475 11.5661 4.613L11.8136 5.9465V3.07475C11.8136 2.1735 12.0984 1.435 12.6643 0.861C13.2302 0.287 13.9481 0 14.82 0C15.7307 0 16.4664 0.294 17.027 0.881999C17.5858 1.47 17.8652 2.22775 17.8652 3.157L17.8246 4.039C18.0173 3.22 18.4223 2.6075 19.0359 2.20325C19.6514 1.80075 20.3393 1.66075 21.0979 1.78325C21.6232 1.8655 22.09 2.06325 22.4968 2.37825C22.9053 2.69325 23.2095 3.09925 23.4093 3.598C23.6091 4.09675 23.6675 4.669 23.5861 5.31125L23.4093 6.93442C23.3751 6.77981 23.5649 6.57708 23.9787 6.32625C24.6012 5.95 25.2856 5.824 26.0301 5.9465C26.5147 6.04275 26.9391 6.237 27.3052 6.531C27.6712 6.825 27.94 7.21875 28.1133 7.7105C28.2866 8.20225 28.3167 8.76225 28.2071 9.39225L26.3414 20.7742C25.7613 24.3162 24.5517 27.02 22.7143 28.8855C20.8769 30.751 18.3498 31.6855 15.1295 31.6855C12.4078 31.6855 10.1089 30.9505 8.22901 29.4805C6.34916 28.0105 4.80178 25.8335 3.58686 22.9477Z" fill="var(--fill-0, black)"/>
</g>
</svg>
