<svg width="20" height="20" viewBox="0 0 20 20" fill="none" xmlns="http://www.w3.org/2000/svg">
<path d="M14.1667 18.3327H13.3333C12.4493 18.3327 11.6014 17.9815 10.9763 17.3564C10.3512 16.7312 10 15.8834 10 14.9993V4.99935C10 4.11529 10.3512 3.26745 10.9763 2.64233C11.6014 2.01721 12.4493 1.66602 13.3333 1.66602H14.1667" stroke="black" stroke-width="1.66667" stroke-linecap="round" stroke-linejoin="round"/>
<path d="M5.83594 18.3333H6.66927C7.55333 18.3333 8.40117 17.9821 9.02629 17.357C9.65141 16.7319 10.0026 15.8841 10.0026 15" stroke="black" stroke-width="1.66667" stroke-linecap="round" stroke-linejoin="round"/>
<path d="M5.83594 1.66602H6.66927C7.55333 1.66602 8.40117 2.01721 9.02629 2.64233C9.65141 3.26745 10.0026 4.11529 10.0026 4.99935" stroke="black" stroke-width="1.66667" stroke-linecap="round" stroke-linejoin="round"/>
</svg>
