<svg preserveAspectRatio="none" width="100%" height="100%" overflow="visible" style="display: block;" viewBox="0 0 46.8 46.8" fill="none" xmlns="http://www.w3.org/2000/svg">
<g id="What I Do">
<g id="Vector">
<path d="M36.2226 37.206C38.9155 37.206 41.0976 35.0239 41.0976 32.331C41.0976 32.2432 41.0761 32.1613 41.0722 32.0736C41.1151 31.7869 41.16 31.5003 41.16 31.2V11.7C41.16 8.46885 38.5411 5.85 35.31 5.85H8.01C4.77885 5.85 2.16 8.46885 2.16 11.7V31.2C2.16 34.4311 4.77885 37.05 8.01 37.05H35.0584C35.4328 37.1416 35.8189 37.206 36.2226 37.206Z" fill="url(#paint0_linear_0_61)"/>
<path d="M36.2226 37.206C38.9155 37.206 41.0976 35.0239 41.0976 32.331C41.0976 32.2432 41.0761 32.1613 41.0722 32.0736C41.1151 31.7869 41.16 31.5003 41.16 31.2V11.7C41.16 8.46885 38.5411 5.85 35.31 5.85H8.01C4.77885 5.85 2.16 8.46885 2.16 11.7V31.2C2.16 34.4311 4.77885 37.05 8.01 37.05H35.0584C35.4328 37.1416 35.8189 37.206 36.2226 37.206Z" fill="url(#paint1_linear_0_61)"/>
<path d="M36.2226 37.206C38.9155 37.206 41.0976 35.0239 41.0976 32.331C41.0976 32.2432 41.0761 32.1613 41.0722 32.0736C41.1151 31.7869 41.16 31.5003 41.16 31.2V11.7C41.16 8.46885 38.5411 5.85 35.31 5.85H8.01C4.77885 5.85 2.16 8.46885 2.16 11.7V31.2C2.16 34.4311 4.77885 37.05 8.01 37.05H35.0584C35.4328 37.1416 35.8189 37.206 36.2226 37.206Z" fill="url(#paint2_linear_0_61)"/>
</g>
<path id="Vector_2" d="M35.31 6.825C37.999 6.825 40.185 9.01095 40.185 11.7V31.2C40.185 31.4418 40.146 31.6719 40.107 31.9293L40.0914 32.0268L40.0972 32.1263C40.1011 32.1926 40.1089 32.2569 40.1226 32.331C40.1226 34.4818 38.3734 36.231 36.2226 36.231C35.9398 36.231 35.6434 36.19 35.2905 36.1042L35.1774 36.075H35.0584H8.01C5.32095 36.075 3.135 33.8871 3.135 31.2V11.7C3.135 9.01095 5.32095 6.825 8.01 6.825H35.31ZM35.31 5.85H8.01C4.77885 5.85 2.16 8.46885 2.16 11.7V31.2C2.16 34.4311 4.77885 37.05 8.01 37.05H35.0584C35.4328 37.1416 35.8189 37.206 36.2226 37.206C38.9155 37.206 41.0976 35.0239 41.0976 32.331C41.0976 32.2432 41.0761 32.1613 41.0722 32.0736C41.1151 31.7869 41.16 31.5003 41.16 31.2V11.7C41.16 8.46885 38.5411 5.85 35.31 5.85Z" fill="url(#paint3_linear_0_61)"/>
<foreignObject x="21.684" y="26.244" width="29.262" height="19.512"><div xmlns="http://www.w3.org/1999/xhtml" style="backdrop-filter:blur(2.93px);clip-path:url(#bgblur_0_0_61_clip_path);height:100%;width:100%"></div></foreignObject><path id="Vector_3" data-figma-bg-blur-radius="5.856" d="M41.19 32.1H31.44C29.2853 32.1 27.54 33.8453 27.54 36C27.54 38.1548 29.2853 39.9 31.44 39.9H41.19C43.3448 39.9 45.09 38.1548 45.09 36C45.09 33.8453 43.3448 32.1 41.19 32.1Z" fill="url(#paint4_linear_0_61)"/>
<g id="Group">
<path id="Vector_4" d="M18.9665 10.6222C18.3015 9.95925 17.2193 9.95925 16.5543 10.6222L12.8844 14.2921L11.1665 12.5722C10.5015 11.9092 9.41929 11.9092 8.75434 12.5722C8.08939 13.2391 8.08939 14.3194 8.75434 14.9863L11.6793 17.9114C11.9991 18.2331 12.4281 18.4105 12.8844 18.4105C13.3407 18.4105 13.7697 18.2331 14.0915 17.9114L18.9665 13.0363C19.6314 12.3694 19.6314 11.2891 18.9665 10.6222Z" fill="url(#paint5_linear_0_61)"/>
</g>
<g id="Group_2">
<path id="Vector_5" d="M33.36 17.6793H25.56C24.4836 17.6793 23.61 16.8057 23.61 15.7293C23.61 14.6529 24.4836 13.7793 25.56 13.7793H33.36C34.4364 13.7793 35.31 14.6529 35.31 15.7293C35.31 16.8057 34.4364 17.6793 33.36 17.6793Z" fill="url(#paint6_linear_0_61)"/>
</g>
<g id="Group_3">
<path id="Vector_6" d="M33.36 25.35H25.56C24.4836 25.35 23.61 24.4764 23.61 23.4C23.61 22.3236 24.4836 21.45 25.56 21.45H33.36C34.4364 21.45 35.31 22.3236 35.31 23.4C35.31 24.4764 34.4364 25.35 33.36 25.35Z" fill="url(#paint7_linear_0_61)"/>
</g>
<g id="Group_4">
<path id="Vector_7" d="M18.9665 20.243C18.3015 19.58 17.2193 19.58 16.5543 20.243L12.8844 23.9129L11.1665 22.193C10.5015 21.53 9.41929 21.53 8.75434 22.193C8.08939 22.8599 8.08939 23.9402 8.75434 24.6071L11.6793 27.5321C12.0011 27.8538 12.4301 28.0313 12.8864 28.0313C13.3427 28.0313 13.7717 27.8538 14.0934 27.5321L18.9684 22.6571C19.6314 21.9902 19.6314 20.9099 18.9665 20.243Z" fill="url(#paint8_linear_0_61)"/>
</g>
<g id="Group_5">
<foreignObject x="25.6459" y="14.544" width="21.462" height="21.462"><div xmlns="http://www.w3.org/1999/xhtml" style="backdrop-filter:blur(2.93px);clip-path:url(#bgblur_1_0_61_clip_path);height:100%;width:100%"></div></foreignObject><path id="Vector_8" data-figma-bg-blur-radius="5.856" d="M36.3769 30.15C39.0693 30.15 41.2519 27.9674 41.2519 25.275C41.2519 22.5826 39.0693 20.4 36.3769 20.4C33.6845 20.4 31.5019 22.5826 31.5019 25.275C31.5019 27.9674 33.6845 30.15 36.3769 30.15Z" fill="url(#paint9_linear_0_61)"/>
</g>
</g>
<defs>
<clipPath id="bgblur_0_0_61_clip_path" transform="translate(-21.684 -26.244)"><path d="M41.19 32.1H31.44C29.2853 32.1 27.54 33.8453 27.54 36C27.54 38.1548 29.2853 39.9 31.44 39.9H41.19C43.3448 39.9 45.09 38.1548 45.09 36C45.09 33.8453 43.3448 32.1 41.19 32.1Z"/>
</clipPath><clipPath id="bgblur_1_0_61_clip_path" transform="translate(-25.6459 -14.544)"><path d="M36.3769 30.15C39.0693 30.15 41.2519 27.9674 41.2519 25.275C41.2519 22.5826 39.0693 20.4 36.3769 20.4C33.6845 20.4 31.5019 22.5826 31.5019 25.275C31.5019 27.9674 33.6845 30.15 36.3769 30.15Z"/>
</clipPath><linearGradient id="paint0_linear_0_61" x1="5.82405" y1="5.61405" x2="37.8294" y2="37.6194" gradientUnits="userSpaceOnUse">
<stop stop-color="white" stop-opacity="0.6"/>
<stop offset="1" stop-color="white" stop-opacity="0.3"/>
</linearGradient>
<linearGradient id="paint1_linear_0_61" x1="21.66" y1="5.85" x2="21.66" y2="37.206" gradientUnits="userSpaceOnUse">
<stop stop-color="#EEDBFC"/>
<stop offset="1" stop-color="#7F35B2"/>
</linearGradient>
<linearGradient id="paint2_linear_0_61" x1="39.0496" y1="5.52194" x2="11.7865" y2="28.0943" gradientUnits="userSpaceOnUse">
<stop stop-color="#B268EA"/>
<stop offset="1" stop-color="#9D44E0"/>
</linearGradient>
<linearGradient id="paint3_linear_0_61" x1="2.16" y1="21.528" x2="41.16" y2="21.528" gradientUnits="userSpaceOnUse">
<stop stop-color="white" stop-opacity="0.6"/>
<stop offset="0.493" stop-color="white" stop-opacity="0"/>
<stop offset="0.997" stop-color="white" stop-opacity="0.3"/>
</linearGradient>
<linearGradient id="paint4_linear_0_61" x1="31.1202" y1="30.8052" x2="41.5098" y2="41.1948" gradientUnits="userSpaceOnUse">
<stop stop-color="white" stop-opacity="0.6"/>
<stop offset="1" stop-color="white" stop-opacity="0.3"/>
</linearGradient>
<linearGradient id="paint5_linear_0_61" x1="11.1899" y1="10.1348" x2="16.529" y2="15.4738" gradientUnits="userSpaceOnUse">
<stop stop-color="white" stop-opacity="0.6"/>
<stop offset="1" stop-color="white" stop-opacity="0.3"/>
</linearGradient>
<linearGradient id="paint6_linear_0_61" x1="26.1314" y1="12.4006" x2="32.7886" y2="19.0579" gradientUnits="userSpaceOnUse">
<stop stop-color="white" stop-opacity="0.6"/>
<stop offset="1" stop-color="white" stop-opacity="0.3"/>
</linearGradient>
<linearGradient id="paint7_linear_0_61" x1="26.1314" y1="20.0714" x2="32.7886" y2="26.7287" gradientUnits="userSpaceOnUse">
<stop stop-color="white" stop-opacity="0.6"/>
<stop offset="1" stop-color="white" stop-opacity="0.3"/>
</linearGradient>
<linearGradient id="paint8_linear_0_61" x1="11.1899" y1="19.7555" x2="16.529" y2="25.0946" gradientUnits="userSpaceOnUse">
<stop stop-color="white" stop-opacity="0.6"/>
<stop offset="1" stop-color="white" stop-opacity="0.3"/>
</linearGradient>
<linearGradient id="paint9_linear_0_61" x1="32.9293" y1="21.8274" x2="39.8245" y2="28.7226" gradientUnits="userSpaceOnUse">
<stop stop-color="white" stop-opacity="0.6"/>
<stop offset="1" stop-color="white" stop-opacity="0.3"/>
</linearGradient>
</defs>
</svg>
