<svg preserveAspectRatio="none" width="100%" height="100%" overflow="visible" style="display: block;" viewBox="0 0 30.8796 30.8796" fill="none" xmlns="http://www.w3.org/2000/svg">
<g id="Brainstorm Skill" clip-path="url(#clip0_0_70)">
<g id="Vector">
<path d="M30.1462 16.7393L27.9203 14.0374C27.2899 8.36323 24.4464 2.5733 16.7265 2.5733C14.534 2.57716 12.6182 3.06866 11.0022 3.93201C10.768 3.89855 10.5364 3.85995 10.2932 3.85995C7.451 3.85995 5.14661 6.16435 5.14661 9.00656C5.14661 9.74252 5.31902 10.4296 5.59951 11.0588C5.301 12.2193 5.14661 13.4609 5.14661 14.7579C5.14661 19.6858 7.59124 21.9374 8.58196 25.3728C9.08376 27.0969 10.5763 28.3063 12.3004 28.3063C14.9007 28.3063 20.7563 28.3063 23.4042 28.3063C25.2441 28.3063 26.828 27.0068 27.1869 25.2029L27.856 21.8473L29.2971 21.0496C30.8796 20.2004 31.2785 18.1289 30.1462 16.7393Z" fill="url(#paint0_linear_0_70)"/>
<path d="M30.1462 16.7393L27.9203 14.0374C27.2899 8.36323 24.4464 2.5733 16.7265 2.5733C14.534 2.57716 12.6182 3.06866 11.0022 3.93201C10.768 3.89855 10.5364 3.85995 10.2932 3.85995C7.451 3.85995 5.14661 6.16435 5.14661 9.00656C5.14661 9.74252 5.31902 10.4296 5.59951 11.0588C5.301 12.2193 5.14661 13.4609 5.14661 14.7579C5.14661 19.6858 7.59124 21.9374 8.58196 25.3728C9.08376 27.0969 10.5763 28.3063 12.3004 28.3063C14.9007 28.3063 20.7563 28.3063 23.4042 28.3063C25.2441 28.3063 26.828 27.0068 27.1869 25.2029L27.856 21.8473L29.2971 21.0496C30.8796 20.2004 31.2785 18.1289 30.1462 16.7393Z" fill="url(#paint1_linear_0_70)"/>
</g>
<path id="Vector_2" d="M16.7278 3.21663C24.8568 3.21792 26.8293 10.041 27.2809 14.1081L27.3015 14.2986L27.4237 14.4465L29.647 17.1459C30.069 17.6632 30.2363 18.3335 30.1064 18.9833C29.9777 19.6253 29.5724 20.1721 28.9857 20.4874L27.5446 21.2851L27.2834 21.4292L27.2255 21.7212L26.5565 25.0768C26.258 26.5745 24.9327 27.663 23.4042 27.663H12.3004C10.8761 27.663 9.6293 26.671 9.19956 25.1939C8.83544 23.9317 8.28089 22.8162 7.74564 21.738C6.78451 19.8041 5.78993 17.8047 5.78993 14.7579C5.78993 13.5279 5.93532 12.3364 6.22353 11.2183L6.27886 11.0009L6.18751 10.795C5.92374 10.207 5.78993 9.60485 5.78993 9.00656C5.78993 6.52332 7.80997 4.50328 10.2932 4.50328C10.4553 4.50328 10.629 4.52773 10.8117 4.55475L10.9134 4.5689L11.1205 4.59721L11.3045 4.49813C12.8922 3.65152 14.7167 3.22049 16.7278 3.21663ZM16.7265 2.5733C14.534 2.57716 12.6182 3.06866 11.0022 3.93201C10.768 3.89855 10.5364 3.85995 10.2932 3.85995C7.451 3.85995 5.14661 6.16435 5.14661 9.00656C5.14661 9.74252 5.31902 10.4296 5.59951 11.0588C5.301 12.2193 5.14661 13.4609 5.14661 14.7579C5.14661 19.6858 7.59124 21.9374 8.58196 25.3728C9.08376 27.0969 10.5763 28.3063 12.3004 28.3063C14.9007 28.3063 20.7563 28.3063 23.4042 28.3063C25.2441 28.3063 26.828 27.0068 27.1869 25.2029L27.856 21.8473L29.2971 21.0496C30.8796 20.2004 31.2785 18.1289 30.1462 16.7393L27.9203 14.0374C27.2899 8.36323 24.4464 2.5733 16.7265 2.5733Z" fill="url(#paint2_linear_0_70)"/>
<path id="Vector_3" d="M6.43326 3.85995C7.14385 3.85995 7.71991 3.2839 7.71991 2.5733C7.71991 1.8627 7.14385 1.28665 6.43326 1.28665C5.72266 1.28665 5.14661 1.8627 5.14661 2.5733C5.14661 3.2839 5.72266 3.85995 6.43326 3.85995Z" fill="url(#paint3_linear_0_70)"/>
<path id="Vector_4" d="M6.43326 1.92998C6.78837 1.92998 7.07658 2.21819 7.07658 2.5733C7.07658 2.92842 6.78837 3.21663 6.43326 3.21663C6.07814 3.21663 5.78993 2.92842 5.78993 2.5733C5.78993 2.21819 6.07814 1.92998 6.43326 1.92998ZM6.43326 1.28665C5.72303 1.28665 5.14661 1.86307 5.14661 2.5733C5.14661 3.28353 5.72303 3.85995 6.43326 3.85995C7.14349 3.85995 7.71991 3.28353 7.71991 2.5733C7.71991 1.86307 7.14349 1.28665 6.43326 1.28665Z" fill="url(#paint4_linear_0_70)"/>
<g id="Group">
<path id="Vector_5" d="M2.5733 9.00656C3.2839 9.00656 3.85995 8.43051 3.85995 7.71991C3.85995 7.00931 3.2839 6.43326 2.5733 6.43326C1.8627 6.43326 1.28665 7.00931 1.28665 7.71991C1.28665 8.43051 1.8627 9.00656 2.5733 9.00656Z" fill="url(#paint5_linear_0_70)"/>
<path id="Vector_6" d="M2.5733 7.07658C2.92842 7.07658 3.21663 7.36479 3.21663 7.71991C3.21663 8.07502 2.92842 8.36323 2.5733 8.36323C2.21819 8.36323 1.92998 8.07502 1.92998 7.71991C1.92998 7.36479 2.21819 7.07658 2.5733 7.07658ZM2.5733 6.43326C1.86307 6.43326 1.28665 7.00968 1.28665 7.71991C1.28665 8.43014 1.86307 9.00656 2.5733 9.00656C3.28353 9.00656 3.85995 8.43014 3.85995 7.71991C3.85995 7.00968 3.28353 6.43326 2.5733 6.43326Z" fill="url(#paint6_linear_0_70)"/>
</g>
<g id="Group_2">
<path id="Vector_7" d="M7.29145 14.1532H13.2963L13.5639 12.9514C14.7 12.007 15.4398 10.6007 15.4398 9.00656C15.4398 6.16435 13.1354 3.85995 10.2932 3.85995C7.451 3.85995 5.14661 6.16435 5.14661 9.00656C5.14661 10.6007 5.88643 12.007 7.02383 12.9514L7.29145 14.1532Z" fill="url(#paint7_linear_0_70)"/>
</g>
<g id="Group_3">
<path id="Vector_8" d="M7.57709 15.4398L7.81255 16.5013C8.0094 17.3852 8.79298 18.0131 9.69749 18.0131H10.8902C11.7947 18.0131 12.5783 17.3852 12.7739 16.5013L13.0093 15.4398H7.57709Z" fill="url(#paint8_linear_0_70)"/>
</g>
<g id="Group_4">
<g id="Vector_9">
<path d="M6.43326 3.85995C7.14385 3.85995 7.71991 3.2839 7.71991 2.5733C7.71991 1.8627 7.14385 1.28665 6.43326 1.28665C5.72266 1.28665 5.14661 1.8627 5.14661 2.5733C5.14661 3.2839 5.72266 3.85995 6.43326 3.85995Z" fill="url(#paint9_linear_0_70)"/>
<path d="M6.43326 3.85995C7.14385 3.85995 7.71991 3.2839 7.71991 2.5733C7.71991 1.8627 7.14385 1.28665 6.43326 1.28665C5.72266 1.28665 5.14661 1.8627 5.14661 2.5733C5.14661 3.2839 5.72266 3.85995 6.43326 3.85995Z" fill="url(#paint10_linear_0_70)"/>
</g>
</g>
<g id="Group_5">
<g id="Vector_10">
<path d="M2.5733 9.00656C3.2839 9.00656 3.85995 8.43051 3.85995 7.71991C3.85995 7.00931 3.2839 6.43326 2.5733 6.43326C1.8627 6.43326 1.28665 7.00931 1.28665 7.71991C1.28665 8.43051 1.8627 9.00656 2.5733 9.00656Z" fill="url(#paint11_linear_0_70)"/>
<path d="M2.5733 9.00656C3.2839 9.00656 3.85995 8.43051 3.85995 7.71991C3.85995 7.00931 3.2839 6.43326 2.5733 6.43326C1.8627 6.43326 1.28665 7.00931 1.28665 7.71991C1.28665 8.43051 1.8627 9.00656 2.5733 9.00656Z" fill="url(#paint12_linear_0_70)"/>
</g>
</g>
</g>
<defs>
<linearGradient id="paint0_linear_0_70" x1="6.34576" y1="5.67671" x2="26.9888" y2="26.3197" gradientUnits="userSpaceOnUse">
<stop stop-color="white" stop-opacity="0.6"/>
<stop offset="1" stop-color="white" stop-opacity="0.3"/>
</linearGradient>
<linearGradient id="paint1_linear_0_70" x1="12.046" y1="5.86693" x2="11.5197" y2="27.1853" gradientUnits="userSpaceOnUse">
<stop stop-color="#B268EA"/>
<stop offset="1" stop-color="#9D44E0"/>
</linearGradient>
<linearGradient id="paint2_linear_0_70" x1="5.14661" y1="15.4398" x2="30.7934" y2="15.4398" gradientUnits="userSpaceOnUse">
<stop stop-color="white" stop-opacity="0.6"/>
<stop offset="0.493" stop-color="white" stop-opacity="0"/>
<stop offset="0.997" stop-color="white" stop-opacity="0.3"/>
</linearGradient>
<linearGradient id="paint3_linear_0_70" x1="5.52359" y1="1.66364" x2="7.34292" y2="3.48297" gradientUnits="userSpaceOnUse">
<stop stop-color="white" stop-opacity="0.6"/>
<stop offset="1" stop-color="white" stop-opacity="0.3"/>
</linearGradient>
<linearGradient id="paint4_linear_0_70" x1="5.14661" y1="2.5733" x2="7.71991" y2="2.5733" gradientUnits="userSpaceOnUse">
<stop stop-color="white" stop-opacity="0.6"/>
<stop offset="0.493" stop-color="white" stop-opacity="0"/>
<stop offset="0.997" stop-color="white" stop-opacity="0.3"/>
</linearGradient>
<linearGradient id="paint5_linear_0_70" x1="1.66364" y1="6.81025" x2="3.48297" y2="8.62957" gradientUnits="userSpaceOnUse">
<stop stop-color="white" stop-opacity="0.6"/>
<stop offset="1" stop-color="white" stop-opacity="0.3"/>
</linearGradient>
<linearGradient id="paint6_linear_0_70" x1="1.28665" y1="7.71991" x2="3.85995" y2="7.71991" gradientUnits="userSpaceOnUse">
<stop stop-color="white" stop-opacity="0.6"/>
<stop offset="0.493" stop-color="white" stop-opacity="0"/>
<stop offset="0.997" stop-color="white" stop-opacity="0.3"/>
</linearGradient>
<linearGradient id="paint7_linear_0_70" x1="6.43712" y1="5.58535" x2="14.1506" y2="13.2988" gradientUnits="userSpaceOnUse">
<stop stop-color="white" stop-opacity="0.6"/>
<stop offset="1" stop-color="white" stop-opacity="0.3"/>
</linearGradient>
<linearGradient id="paint8_linear_0_70" x1="8.62185" y1="14.3951" x2="11.9646" y2="17.7378" gradientUnits="userSpaceOnUse">
<stop stop-color="white" stop-opacity="0.6"/>
<stop offset="1" stop-color="white" stop-opacity="0.3"/>
</linearGradient>
<linearGradient id="paint9_linear_0_70" x1="5.52359" y1="1.66364" x2="7.34292" y2="3.48297" gradientUnits="userSpaceOnUse">
<stop stop-color="white" stop-opacity="0.6"/>
<stop offset="1" stop-color="white" stop-opacity="0.3"/>
</linearGradient>
<linearGradient id="paint10_linear_0_70" x1="5.83887" y1="1.61601" x2="5.78642" y2="3.74786" gradientUnits="userSpaceOnUse">
<stop stop-color="#B268EA"/>
<stop offset="1" stop-color="#9D44E0"/>
</linearGradient>
<linearGradient id="paint11_linear_0_70" x1="1.66364" y1="6.81025" x2="3.48297" y2="8.62957" gradientUnits="userSpaceOnUse">
<stop stop-color="white" stop-opacity="0.6"/>
<stop offset="1" stop-color="white" stop-opacity="0.3"/>
</linearGradient>
<linearGradient id="paint12_linear_0_70" x1="1.97892" y1="6.76262" x2="1.92647" y2="8.89446" gradientUnits="userSpaceOnUse">
<stop stop-color="#B268EA"/>
<stop offset="1" stop-color="#9D44E0"/>
</linearGradient>
<clipPath id="clip0_0_70">
<rect width="30.8796" height="30.8796" fill="white"/>
</clipPath>
</defs>
</svg>
