<svg preserveAspectRatio="none" width="100%" height="100%" overflow="visible" style="display: block;" viewBox="0 0 45 45" fill="none" xmlns="http://www.w3.org/2000/svg">
<g id="Info">
<g id="Vector">
<path d="M22.5 41.25C32.8553 41.25 41.25 32.8553 41.25 22.5C41.25 12.1447 32.8553 3.75 22.5 3.75C12.1447 3.75 3.75 12.1447 3.75 22.5C3.75 32.8553 12.1447 41.25 22.5 41.25Z" fill="url(#paint0_linear_0_55)"/>
<path d="M22.5 41.25C32.8553 41.25 41.25 32.8553 41.25 22.5C41.25 12.1447 32.8553 3.75 22.5 3.75C12.1447 3.75 3.75 12.1447 3.75 22.5C3.75 32.8553 12.1447 41.25 22.5 41.25Z" fill="url(#paint1_linear_0_55)"/>
</g>
<path id="Vector_2" d="M22.5 4.6875C32.3212 4.6875 40.3125 12.6788 40.3125 22.5C40.3125 32.3212 32.3212 40.3125 22.5 40.3125C12.6788 40.3125 4.6875 32.3212 4.6875 22.5C4.6875 12.6788 12.6788 4.6875 22.5 4.6875ZM22.5 3.75C12.1444 3.75 3.75 12.1444 3.75 22.5C3.75 32.8556 12.1444 41.25 22.5 41.25C32.8556 41.25 41.25 32.8556 41.25 22.5C41.25 12.1444 32.8556 3.75 22.5 3.75Z" fill="url(#paint2_linear_0_55)"/>
<path id="Vector_3" d="M24.375 22.5V31.875C24.375 32.91 23.535 33.75 22.5 33.75C21.465 33.75 20.625 32.91 20.625 31.875V22.5C20.625 21.465 21.465 20.625 22.5 20.625C23.535 20.625 24.375 21.465 24.375 22.5Z" fill="url(#paint3_linear_0_55)"/>
<path id="Vector_4" d="M22.5 16.875C24.0533 16.875 25.3125 15.6158 25.3125 14.0625C25.3125 12.5092 24.0533 11.25 22.5 11.25C20.9467 11.25 19.6875 12.5092 19.6875 14.0625C19.6875 15.6158 20.9467 16.875 22.5 16.875Z" fill="url(#paint4_linear_0_55)"/>
</g>
<defs>
<linearGradient id="paint0_linear_0_55" x1="9.24188" y1="9.24188" x2="35.7581" y2="35.7581" gradientUnits="userSpaceOnUse">
<stop stop-color="white" stop-opacity="0.6"/>
<stop offset="1" stop-color="white" stop-opacity="0.3"/>
</linearGradient>
<linearGradient id="paint1_linear_0_55" x1="39.2207" y1="3.35766" x2="8.60339" y2="23.7387" gradientUnits="userSpaceOnUse">
<stop stop-color="#B268EA"/>
<stop offset="1" stop-color="#9D44E0"/>
</linearGradient>
<linearGradient id="paint2_linear_0_55" x1="9.24188" y1="9.24188" x2="35.7581" y2="35.7581" gradientUnits="userSpaceOnUse">
<stop stop-color="white" stop-opacity="0.6"/>
<stop offset="0.493" stop-color="white" stop-opacity="0"/>
<stop offset="0.997" stop-color="white" stop-opacity="0.3"/>
</linearGradient>
<linearGradient id="paint3_linear_0_55" x1="18.8306" y1="23.5181" x2="26.1694" y2="30.8569" gradientUnits="userSpaceOnUse">
<stop stop-color="white" stop-opacity="0.7"/>
<stop offset="0.519" stop-color="white" stop-opacity="0.45"/>
<stop offset="1" stop-color="white" stop-opacity="0.55"/>
</linearGradient>
<linearGradient id="paint4_linear_0_55" x1="20.5106" y1="12.0731" x2="24.4894" y2="16.0519" gradientUnits="userSpaceOnUse">
<stop stop-color="white" stop-opacity="0.7"/>
<stop offset="0.519" stop-color="white" stop-opacity="0.45"/>
<stop offset="1" stop-color="white" stop-opacity="0.55"/>
</linearGradient>
</defs>
</svg>
