<svg preserveAspectRatio="none" width="100%" height="100%" overflow="visible" style="display: block;" viewBox="0 0 31.2206 17.6488" fill="none" xmlns="http://www.w3.org/2000/svg">
<path id="trending_up" d="M0.308489 17.3267C0.0982112 17.1125 -0.00456665 16.864 0.000155577 16.5813C0.00460002 16.2985 0.107239 16.0567 0.308072 15.8558L9.05932 7.075C9.55738 6.57222 10.1688 6.32083 10.8935 6.32083C11.6182 6.32083 12.2322 6.57222 12.7356 7.075L17.3497 11.6871C17.4459 11.7832 17.5634 11.8313 17.7022 11.8313C17.8411 11.8313 17.964 11.7832 18.071 11.6871L27.7293 2.09417H23.366C23.0688 2.09417 22.8199 1.99347 22.6193 1.79208C22.419 1.59069 22.3189 1.34069 22.3189 1.04208C22.3189 0.743473 22.419 0.495139 22.6193 0.297084C22.8199 0.099028 23.0688 0 23.366 0H29.9172C30.2892 0 30.5993 0.124306 30.8477 0.372917C31.0963 0.621528 31.2206 0.931807 31.2206 1.30375V7.855C31.2206 8.13806 31.1229 8.38333 30.9277 8.59083C30.7321 8.79806 30.4896 8.90167 30.2002 8.90167C29.9104 8.90167 29.662 8.8007 29.4547 8.59875C29.2472 8.39681 29.1435 8.15417 29.1435 7.87083V3.6025L19.5102 13.2192C19.0188 13.7183 18.4107 13.9679 17.686 13.9679C16.9613 13.9679 16.3492 13.7183 15.8497 13.2192L11.2464 8.6325C11.1431 8.53639 11.0184 8.48833 10.8722 8.48833C10.7261 8.48833 10.605 8.53639 10.5089 8.6325L1.79974 17.3313C1.58807 17.5429 1.33946 17.6488 1.05391 17.6488C0.76835 17.6488 0.519878 17.5414 0.308489 17.3267Z" fill="var(--fill-0, #1C1B1F)"/>
</svg>
