<svg preserveAspectRatio="none" width="100%" height="100%" overflow="visible" style="display: block;" viewBox="0 0 31.2206 17.6654" fill="none" xmlns="http://www.w3.org/2000/svg">
<path id="trending_down" d="M27.7293 15.5717L18.071 5.96792C17.964 5.8718 17.8411 5.82375 17.7022 5.82375C17.5634 5.82375 17.4459 5.8718 17.3497 5.96792L12.7356 10.5821C12.2339 11.0849 11.6206 11.3362 10.8956 11.3362C10.1706 11.3362 9.55849 11.0849 9.05932 10.5821L0.308072 1.80875C0.107239 1.60792 0.00460022 1.36167 0.000155778 1.07C-0.00456644 0.778333 0.0980724 0.523888 0.308072 0.306666C0.519739 0.102222 0.76835 0 1.05391 0C1.33946 0 1.58807 0.102222 1.79974 0.306666L10.5089 9.03292C10.605 9.1293 10.7261 9.1775 10.8722 9.1775C11.0184 9.1775 11.1431 9.1293 11.2464 9.03292L15.8497 4.41875C16.3478 3.92653 16.9593 3.68042 17.6843 3.68042C18.4093 3.68042 19.0179 3.92653 19.5102 4.41875L29.1435 14.0629V9.79375C29.1435 9.49708 29.2472 9.25125 29.4547 9.05625C29.662 8.86125 29.9111 8.76375 30.2022 8.76375C30.4936 8.76375 30.7361 8.86125 30.9297 9.05625C31.1236 9.25125 31.2206 9.49708 31.2206 9.79375V16.3621C31.2206 16.7343 31.0964 17.0446 30.8481 17.2929C30.5995 17.5413 30.2892 17.6654 29.9172 17.6654H23.366C23.0685 17.6654 22.8196 17.5649 22.6193 17.3638C22.419 17.1624 22.3189 16.9124 22.3189 16.6138C22.3189 16.3149 22.419 16.0664 22.6193 15.8683C22.8196 15.6706 23.0685 15.5717 23.366 15.5717H27.7293Z" fill="var(--fill-0, #1C1B1F)"/>
</svg>
