<svg preserveAspectRatio="none" width="100%" height="100%" overflow="visible" style="display: block;" viewBox="0 0 30 23.3333" fill="none" xmlns="http://www.w3.org/2000/svg">
<path id="price_change" d="M2.43583 23.3333C1.75306 23.3333 1.17639 23.0981 0.705833 22.6275C0.235278 22.1569 0 21.5803 0 20.8975V2.43583C0 1.75306 0.235278 1.17639 0.705833 0.705833C1.17639 0.235278 1.75306 0 2.43583 0H27.5642C28.2469 0 28.8236 0.235278 29.2942 0.705833C29.7647 1.17639 30 1.75306 30 2.43583V20.8975C30 21.5803 29.7647 22.1569 29.2942 22.6275C28.8236 23.0981 28.2469 23.3333 27.5642 23.3333H2.43583ZM2.43583 21.9229H27.5642C27.8206 21.9229 28.0556 21.8161 28.2692 21.6025C28.4828 21.3889 28.5896 21.1539 28.5896 20.8975V2.43583C28.5896 2.17945 28.4828 1.94444 28.2692 1.73083C28.0556 1.51722 27.8206 1.41042 27.5642 1.41042H2.43583C2.17944 1.41042 1.94444 1.51722 1.73083 1.73083C1.51722 1.94444 1.41042 2.17945 1.41042 2.43583V20.8975C1.41042 21.1539 1.51722 21.3889 1.73083 21.6025C1.94444 21.8161 2.17944 21.9229 2.43583 21.9229ZM12.5875 16.0963H6.49792C6.29708 16.0963 6.12931 16.164 5.99458 16.2996C5.86014 16.4351 5.79292 16.6042 5.79292 16.8067C5.79292 17.0089 5.86014 17.1761 5.99458 17.3083C6.12931 17.4403 6.29708 17.5063 6.49792 17.5063H9.21375V18.5429C9.21375 18.7438 9.28153 18.9114 9.41708 19.0458C9.55264 19.1806 9.72167 19.2479 9.92417 19.2479C10.1264 19.2479 10.2936 19.1806 10.4258 19.0458C10.5578 18.9114 10.6238 18.7438 10.6238 18.5429V17.5063H12.7904C13.1374 17.5063 13.4254 17.3829 13.6546 17.1362C13.8835 16.8893 13.9979 16.5969 13.9979 16.2592V12.2029C13.9979 11.8418 13.8835 11.5389 13.6546 11.2942C13.4254 11.0497 13.1374 10.9275 12.7904 10.9275H7.20292V7.23708H13.2929C13.4938 7.23708 13.6614 7.16931 13.7958 7.03375C13.9306 6.89819 13.9979 6.72917 13.9979 6.52667C13.9979 6.32445 13.9306 6.15722 13.7958 6.025C13.6614 5.89305 13.4938 5.82708 13.2929 5.82708H10.6238V4.79042C10.6238 4.58958 10.556 4.42195 10.4204 4.2875C10.2849 4.15278 10.116 4.08542 9.91375 4.08542C9.71125 4.08542 9.54389 4.15278 9.41167 4.2875C9.27972 4.42195 9.21375 4.58958 9.21375 4.79042V5.82708H7.06833C6.70722 5.82708 6.40431 5.95042 6.15958 6.19708C5.91514 6.44403 5.79292 6.74667 5.79292 7.105V11.1342C5.79292 11.4928 5.91514 11.7831 6.15958 12.005C6.40431 12.2267 6.70722 12.3375 7.06833 12.3375H12.5875V16.0963ZM21.995 18.1075L23.5763 16.5263C23.6849 16.4318 23.7157 16.3206 23.6688 16.1925C23.6215 16.0642 23.5242 16 23.3767 16H20.2204C20.0726 16 19.974 16.0642 19.9246 16.1925C19.8751 16.3206 19.9047 16.4318 20.0133 16.5263L21.5946 18.1075C21.6568 18.1697 21.7236 18.2008 21.795 18.2008C21.8661 18.2008 21.9328 18.1697 21.995 18.1075ZM20.2129 7.75H23.3696C23.5171 7.75 23.6156 7.68583 23.665 7.5575C23.7144 7.42944 23.6849 7.31819 23.5763 7.22375L21.995 5.6425C21.9328 5.58028 21.8661 5.54917 21.795 5.54917C21.7236 5.54917 21.6568 5.58028 21.5946 5.6425L20.0133 7.22375C19.9047 7.31819 19.874 7.42944 19.9212 7.5575C19.9682 7.68583 20.0654 7.75 20.2129 7.75Z" fill="var(--fill-0, #1C1B1F)"/>
</svg>
