<svg preserveAspectRatio="none" width="100%" height="100%" overflow="visible" style="display: block;" viewBox="0 0 26.6667 26.6667" fill="none" xmlns="http://www.w3.org/2000/svg">
<path id="calculate" d="M7.09833 19.5342V22.2992C7.09833 22.4847 7.1625 22.6451 7.29083 22.7804C7.41917 22.9154 7.58028 22.9829 7.77417 22.9829C7.96805 22.9829 8.12833 22.9154 8.255 22.7804C8.38139 22.6451 8.44458 22.4847 8.44458 22.2992V19.5342H11.2096C11.3951 19.5342 11.5554 19.47 11.6904 19.3417C11.8257 19.2131 11.8933 19.0519 11.8933 18.8583C11.8933 18.6644 11.8257 18.5042 11.6904 18.3775C11.5554 18.2511 11.3951 18.1879 11.2096 18.1879H8.44458V15.4229C8.44458 15.2332 8.38028 15.0754 8.25167 14.9496C8.12333 14.8238 7.96222 14.7608 7.76833 14.7608C7.57444 14.7608 7.41431 14.8238 7.28792 14.9496C7.16153 15.0754 7.09833 15.2332 7.09833 15.4229V18.1879H4.33333C4.14333 18.1879 3.98542 18.2522 3.85958 18.3808C3.73375 18.5092 3.67083 18.6703 3.67083 18.8642C3.67083 19.0581 3.73375 19.2182 3.85958 19.3446C3.98542 19.471 4.14333 19.5342 4.33333 19.5342H7.09833ZM16.2971 21.6583H22.2929C22.481 21.6583 22.6372 21.594 22.7617 21.4654C22.8864 21.3371 22.9488 21.176 22.9488 20.9821C22.9488 20.7882 22.8867 20.6292 22.7625 20.505C22.6381 20.3806 22.4815 20.3183 22.2929 20.3183H16.2904C16.1024 20.3183 15.9461 20.3806 15.8217 20.505C15.6969 20.6292 15.6346 20.7882 15.6346 20.9821C15.6346 21.176 15.6975 21.3371 15.8233 21.4654C15.9492 21.594 16.1071 21.6583 16.2971 21.6583ZM16.2971 17.4038H22.2863C22.4763 17.4038 22.6342 17.3396 22.76 17.2113C22.8858 17.0829 22.9488 16.9218 22.9488 16.7279C22.9488 16.534 22.8858 16.3739 22.76 16.2475C22.6342 16.1208 22.4763 16.0575 22.2863 16.0575H16.2971C16.1071 16.0575 15.9492 16.1218 15.8233 16.2504C15.6975 16.3788 15.6346 16.5399 15.6346 16.7337C15.6346 16.9276 15.6975 17.0878 15.8233 17.2142C15.9492 17.3406 16.1071 17.4038 16.2971 17.4038ZM4.82458 7.985H10.7392C10.9292 7.985 11.0871 7.92083 11.2129 7.7925C11.3387 7.66417 11.4017 7.50305 11.4017 7.30917C11.4017 7.11528 11.3387 6.955 11.2129 6.82833C11.0871 6.70194 10.9292 6.63875 10.7392 6.63875H4.82458C4.62847 6.63875 4.46556 6.70306 4.33583 6.83167C4.20583 6.96 4.14083 7.12111 4.14083 7.315C4.14083 7.50889 4.20583 7.66903 4.33583 7.79542C4.46556 7.92181 4.62847 7.985 4.82458 7.985ZM2.43583 26.6667C1.75306 26.6667 1.17639 26.4314 0.705833 25.9608C0.235278 25.4903 0 24.9136 0 24.2308V2.43583C0 1.75306 0.235278 1.17639 0.705833 0.705833C1.17639 0.235278 1.75306 0 2.43583 0H24.2308C24.9136 0 25.4903 0.235278 25.9608 0.705833C26.4314 1.17639 26.6667 1.75306 26.6667 2.43583V24.2308C26.6667 24.9136 26.4314 25.4903 25.9608 25.9608C25.4903 26.4314 24.9136 26.6667 24.2308 26.6667H2.43583ZM2.43583 25.2563H24.2308C24.4872 25.2563 24.7222 25.1494 24.9358 24.9358C25.1494 24.7222 25.2563 24.4872 25.2563 24.2308V2.43583C25.2563 2.17945 25.1494 1.94444 24.9358 1.73083C24.7222 1.51722 24.4872 1.41042 24.2308 1.41042H2.43583C2.17944 1.41042 1.94444 1.51722 1.73083 1.73083C1.51722 1.94444 1.41042 2.17945 1.41042 2.43583V24.2308C1.41042 24.4872 1.51722 24.7222 1.73083 24.9358C1.94444 25.1494 2.17944 25.2563 2.43583 25.2563ZM19.2542 8.27125L21.1804 10.1975C21.2985 10.3222 21.4521 10.39 21.6413 10.4008C21.8307 10.4114 21.9983 10.3436 22.1442 10.1975C22.2881 10.0394 22.3606 9.87236 22.3617 9.69625C22.3628 9.51986 22.2843 9.35861 22.1263 9.2125L20.2179 7.3225L22.1442 5.39625C22.2689 5.27847 22.3365 5.12486 22.3471 4.93542C22.3579 4.74625 22.2903 4.57861 22.1442 4.4325C21.9983 4.28667 21.8361 4.21375 21.6575 4.21375C21.4789 4.21375 21.3199 4.28667 21.1804 4.4325L19.2542 6.3375L17.3492 4.4325C17.2158 4.30806 17.0585 4.24042 16.8771 4.22958C16.6954 4.21903 16.5281 4.28667 16.375 4.4325C16.2219 4.57861 16.1454 4.74097 16.1454 4.91958C16.1454 5.09819 16.2256 5.25708 16.3858 5.39625L18.2904 7.3225L16.3825 9.2125C16.2458 9.35139 16.1721 9.51514 16.1613 9.70375C16.1507 9.89236 16.2219 10.0569 16.375 10.1975C16.5214 10.3436 16.6839 10.4167 16.8625 10.4167C17.0411 10.4167 17.2033 10.3436 17.3492 10.1975L19.2542 8.27125Z" fill="var(--fill-0, #1C1B1F)"/>
</svg>
