<svg preserveAspectRatio="none" width="100%" height="100%" overflow="visible" style="display: block;" viewBox="0 0 28.404 24.8206" fill="none" xmlns="http://www.w3.org/2000/svg">
<path id="bolt_boost" d="M18.025 24.5487C17.9536 24.4331 17.9318 24.2912 17.9596 24.1228L19.3246 14.7095H12.6346C12.1368 14.7095 11.7718 14.4887 11.5396 14.047C11.3074 13.6053 11.3329 13.178 11.6163 12.7649L20.7392 0.234084C20.8581 0.107139 20.9761 0.0328345 21.0933 0.0111678C21.2106 -0.0104988 21.3326 -0.000639341 21.4596 0.0407496C21.5863 0.0818607 21.6854 0.160749 21.7571 0.277416C21.8285 0.393805 21.8503 0.528249 21.8225 0.680749L20.4638 10.0853H27.1817C27.6689 10.0853 28.026 10.3098 28.2529 10.7587C28.4796 11.2073 28.4513 11.6381 28.1679 12.0512L19.0504 24.5687C18.9507 24.6959 18.8361 24.7739 18.7067 24.8028C18.5775 24.8317 18.4494 24.8255 18.3225 24.7841C18.1958 24.743 18.0967 24.6645 18.025 24.5487ZM2.37167 21.0983C2.17194 21.0983 2.00458 21.0301 1.86958 20.8937C1.73431 20.7573 1.66667 20.5884 1.66667 20.387C1.66667 20.1853 1.73431 20.0184 1.86958 19.8862C2.00458 19.7542 2.17194 19.6883 2.37167 19.6883H13.5429C13.7779 19.6883 13.9542 19.7605 14.0717 19.9049C14.1892 20.0496 14.2479 20.2088 14.2479 20.3824C14.2479 20.556 14.1892 20.7187 14.0717 20.8703C13.9542 21.0223 13.7779 21.0983 13.5429 21.0983H2.37167ZM0.705 13.1003C0.505278 13.1003 0.337917 13.0321 0.202917 12.8958C0.067639 12.7594 0 12.5905 0 12.3891C0 12.1874 0.067639 12.0205 0.202917 11.8883C0.337917 11.7563 0.505278 11.6903 0.705 11.6903H5.74583C5.98083 11.6903 6.15708 11.7626 6.27458 11.907C6.39208 12.0517 6.45083 12.2109 6.45083 12.3845C6.45083 12.5581 6.39208 12.7209 6.27458 12.8728C6.15708 13.0245 5.98083 13.1003 5.74583 13.1003H0.705ZM4.00625 5.09617C3.80653 5.09617 3.63917 5.02797 3.50417 4.89158C3.36889 4.75519 3.30125 4.58617 3.30125 4.3845C3.30125 4.18311 3.36889 4.0163 3.50417 3.88408C3.63917 3.75186 3.80653 3.68575 4.00625 3.68575H11.6742C11.9092 3.68575 12.0854 3.75811 12.2029 3.90283C12.3204 4.04756 12.3792 4.20672 12.3792 4.38033C12.3792 4.55367 12.3199 4.7163 12.2013 4.86825C12.0826 5.02019 11.9049 5.09617 11.6679 5.09617H4.00625Z" fill="var(--fill-0, #1C1B1F)"/>
</svg>
