<svg preserveAspectRatio="none" width="100%" height="100%" overflow="visible" style="display: block;" viewBox="0 0 29.4762 12.9236" fill="none" xmlns="http://www.w3.org/2000/svg">
<path id="trending_flat" d="M25.9788 7.50964H1.04708C0.745139 7.50964 0.495139 7.41061 0.297084 7.21255C0.099028 7.0145 0 6.7645 0 6.46255C0 6.16061 0.099028 5.91061 0.297084 5.71255C0.495139 5.5145 0.745139 5.41547 1.04708 5.41547H26.0067L22.3846 1.79588C22.1782 1.58922 22.0738 1.34436 22.0713 1.0613C22.0688 0.778248 22.1725 0.531721 22.3825 0.321721C22.5997 0.110054 22.8468 0.00283039 23.1237 5.26088e-05C23.401 -0.00272517 23.6453 0.104498 23.8567 0.321721L29.0867 5.54922C29.3464 5.81616 29.4762 6.12241 29.4762 6.46797C29.4762 6.81325 29.3464 7.11589 29.0867 7.37589L23.8587 12.6142C23.651 12.8151 23.4058 12.9181 23.1233 12.9234C22.8408 12.9289 22.5946 12.8259 22.3846 12.6142C22.1674 12.397 22.0588 12.147 22.0588 11.8642C22.0588 11.5814 22.1674 11.3314 22.3846 11.1142L25.9788 7.50964Z" fill="var(--fill-0, #1C1B1F)"/>
</svg>
