<svg width="54.7826" height="18" viewBox="0 0 54.7826 18" fill="none" xmlns="http://www.w3.org/2000/svg">
<path d="M54.7826 3.53951L49.4104 17.6795H44.8864L42.6244 9.78312L40.3447 17.6795H35.8243L31.8516 7.13303H29.3776V11.8824C29.3776 14.1112 30.2612 14.4785 31.4699 14.4785C31.7902 14.472 32.1089 14.431 32.4207 14.3561L33.6577 17.6399C32.6942 17.8805 31.7056 18.0014 30.7136 18C26.5713 18 24.8042 16.2752 24.8042 12.2388V7.13303H22.9168L18.9124 17.6795H14.3884L12.1299 9.78312L9.84322 17.6795H5.32275L0 3.53951H5.12836L7.80384 12.084L10.3557 3.53951H13.8901L16.4666 12.084L19.128 3.53951H24.8042V0.997399L29.3776 0V3.53951H35.6299L38.3019 12.084L40.8537 3.53951H44.388L46.9646 12.084L49.6154 3.53951H54.7826Z" fill="#7F35B2"/>
</svg>
